<?xml version="1.0" encoding="utf-8"?>
<!-- Generator: Adobe Illustrator 24.0.0, SVG Export Plug-In . SVG Version: 6.00 Build 0)  -->
<svg version="1.1" id="Layer_1" xmlns="http://www.w3.org/2000/svg" xmlns:xlink="http://www.w3.org/1999/xlink" x="0px" y="0px"
	 viewBox="0 0 303.5 303.5" style="enable-background:new 0 0 303.5 303.5;" xml:space="preserve">
<style type="text/css">
	.st0{fill:#D7DD24;}
</style>
<g>
	<circle id="Ellipse_220" class="st0" cx="235.4" cy="163.2" r="23.1"/>
	<circle id="Ellipse_221" class="st0" cx="68.2" cy="68.2" r="23.1"/>
	<g id="Group_519">
		<path id="Path_87" d="M59.4,174.8c-8.2,4.8-10.9,15.4-6,23.5s15.4,10.9,23.5,6c3.5-2.1,6.1-5.3,7.5-9.1h44.5
			c9.5,0,17.2,7.7,17.2,17.2c0,9.5-7.7,17.2-17.2,17.2H60.1c-15.8,0-28.6,12.8-28.6,28.6s12.8,28.6,28.6,28.6c0,0,0,0,0,0h57.3
			c3.2,0,5.7-2.6,5.7-5.7c0-3.2-2.6-5.7-5.7-5.7H60.1c-9.5,0-17.2-7.7-17.2-17.2c0-9.5,7.7-17.2,17.2-17.2h68.7
			c15.8,0,28.6-12.8,28.6-28.6c0-15.8-12.8-28.6-28.6-28.6H84.3c-1.4-3.8-4-7-7.5-9.1l43.7-71.8C139.9,74,132,34.9,103,15.7
			S34.9,4.3,15.7,33.3c-14,21.1-14,48.6,0,69.7L59.4,174.8z M68.2,195.3c-3.2,0-5.7-2.6-5.7-5.7c0-3.2,2.6-5.7,5.7-5.7
			c3.2,0,5.7,2.6,5.7,5.7l0,0C73.9,192.7,71.3,195.3,68.2,195.3z M68.2,16.6c28.5,0,51.5,23.1,51.5,51.5c0,10.2-3,20.1-8.7,28.6
			c0,0.1-0.1,0.1-0.1,0.2l-42.8,70.1c0,0-42.8-70.3-42.9-70.3C9.5,73.1,15.9,41.1,39.6,25.3C48,19.6,58,16.6,68.2,16.6z"/>
		<path id="Path_88" d="M68.2,96.8C84,96.8,96.8,84,96.8,68.2S84,39.5,68.2,39.5c-15.8,0-28.6,12.8-28.6,28.6l0,0
			C39.5,84,52.3,96.8,68.2,96.8z M68.2,51c9.5,0,17.2,7.7,17.2,17.2c0,9.5-7.7,17.2-17.2,17.2c-9.5,0-17.2-7.7-17.2-17.2
			c0,0,0,0,0,0C51,58.7,58.7,51,68.2,51z"/>
		<path id="Path_89" d="M235.4,100.2c-34.8,0-63,28.2-63,63c0,12.4,3.7,24.5,10.5,34.9l43.6,68.3c-3.4,2.1-6,5.2-7.3,9h-50.2
			c-3.2,0-5.7,2.6-5.7,5.7c0,3.2,2.6,5.7,5.7,5.7c0,0,0,0,0,0h50.2c3.2,8.9,13,13.6,21.9,10.5c8.9-3.2,13.6-13,10.5-21.9
			c-1.3-3.8-3.9-6.9-7.3-9l43.6-68.3c19.3-29,11.4-68.1-17.5-87.3C259.9,103.9,247.8,100.2,235.4,100.2z M235.4,286.9
			c-3.2,0-5.7-2.6-5.7-5.7s2.6-5.7,5.7-5.7c3.2,0,5.7,2.6,5.7,5.7C241.1,284.3,238.5,286.9,235.4,286.9z M278.2,191.8l-42.9,67.3
			l-42.9-67.3c-15.8-23.7-9.4-55.7,14.3-71.5c23.7-15.8,55.7-9.4,71.5,14.3C289.8,151.9,289.8,174.5,278.2,191.8L278.2,191.8z"/>
		<path id="Path_90" d="M235.4,134.6c-15.8,0-28.6,12.8-28.6,28.6s12.8,28.6,28.6,28.6S264,179,264,163.2l0,0
			C264,147.4,251.2,134.6,235.4,134.6z M235.4,180.4c-9.5,0-17.2-7.7-17.2-17.2c0-9.5,7.7-17.2,17.2-17.2c9.5,0,17.2,7.7,17.2,17.2
			C252.5,172.7,244.8,180.4,235.4,180.4z"/>
		<path id="Ellipse_222" d="M142.9,279.5c3.3,0,6.1-2.5,6.1,0.8c0,3.3-2.7,6-6,6s-6-2.7-6-6C136.9,277,139.5,279.5,142.9,279.5z"/>
	</g>
	<path id="Path_91" d="M110,275.4h73.8l-2.1,11.5h-79.8L110,275.4z"/>
</g>
</svg>
