<?xml version="1.0" encoding="utf-8"?>
<!-- Generator: Adobe Illustrator 24.0.0, SVG Export Plug-In . SVG Version: 6.00 Build 0)  -->
<svg version="1.1" id="Layer_1" xmlns="http://www.w3.org/2000/svg" xmlns:xlink="http://www.w3.org/1999/xlink" x="0px" y="0px"
	 viewBox="0 0 303.5 303.5" style="enable-background:new 0 0 303.5 303.5;" xml:space="preserve">
<style type="text/css">
	.st0{fill:#47966F;}
</style>
<g>
	<path id="Path_93" class="st0" d="M151.7,36.9v221.6l-19.9,20.8l-26.6,5.4l-19.7-14.3l-9.3-7.4l-21.8-7l-12.3-26.6v-7.8l-3.9-11.9
		L32,196.7l4.5-12.9l1.8-13.9l-1.8-12.7l-4.5-13.5c0,0,6.5-2.9,6.3-4.9s7.2-13.1,7.2-13.1l0.8-9l-0.4-13.6l7-19.6l4.5-2.5l8.6-9.4
		l4.8-18.4l7.5-8.2l6.1-2.5l7.5-5.7l6-6.6l5.2-6.1l18.1-5.8l8.9,2c2.2,2.7,4.6,5.3,7.1,7.8c2.6,2.9,5.1,5.9,7.4,9L151.7,36.9z"/>
	<g id="Group_522" transform="translate(73.652 22.641)">
		<g id="Group_521-2">
			<path id="Path_94" d="M105.1,35.6c-3,0-5.4,2.4-5.4,5.4c0,3,2.4,5.4,5.4,5.4c3,0,5.4-2.4,5.4-5.4v0
				C110.5,38,108.1,35.6,105.1,35.6z"/>
		</g>
	</g>
	<g id="Group_524" transform="translate(46.374 22.641)">
		<g id="Group_523">
			<path id="Path_95" d="M78.3,35.6c-3,0-5.4,2.4-5.4,5.4c0,3,2.4,5.4,5.4,5.4c3,0,5.4-2.4,5.4-5.4v0C83.8,38,81.3,35.6,78.3,35.6z"
				/>
		</g>
	</g>
	<g id="Group_526">
		<g id="Group_525">
			<path id="Path_96" d="M269.1,174.9c4.5-6.9,6.9-14.9,7-23.2c0-11.2-5-21.9-13.7-29c1.9-4.5,2.9-9.3,2.9-14.2
				c-0.1-15-8.5-28.7-21.8-35.6c2-16.3-8.6-31.5-24.6-35.3c-6.2-14.4-20-24.1-34.6-24.1c-13.5,0.3-25.8,7.7-32.4,19.5
				c-6.6-11.8-18.9-19.2-32.4-19.5c-14.6,0-28.4,9.8-34.6,24.1c-16,3.8-26.6,19-24.6,35.3c-13.4,6.9-21.8,20.6-21.8,35.6
				c0,4.9,1,9.7,2.9,14.2c-8.7,7.1-13.7,17.8-13.7,29c0.1,8.2,2.5,16.3,7,23.2c-10.7,15-8.9,35.6,4.3,48.4
				c-3.7,22.4,14.2,45.1,37.3,45.1h0.5c7.7,13.3,21.9,21.6,37.3,21.6c16-0.3,30.5-9.3,37.8-23.5c10.5,21,36.2,29.5,57.2,19
				c7.6-3.8,13.8-9.7,18-17.1c0.2,0,0.3,0,0.5,0c20.5,0,37.8-18.1,37.8-39.4c0-1.9-0.2-3.8-0.5-5.7
				C278,210.5,279.8,189.9,269.1,174.9L269.1,174.9z M146.3,95.2c-3.3-1.9-7-2.9-10.8-2.9c-3,0-5.4,2.4-5.4,5.4c0,3,2.4,5.4,5.4,5.4
				l0,0c6,0,10.8,4.8,10.8,10.8v102.8c-8.2-9.3-20-14.7-32.4-14.7c-3,0-5.4,2.4-5.4,5.4c0,3,2.4,5.4,5.4,5.4l0,0
				c17.9,0,32.4,14.5,32.4,32.4c0,18.5-14.9,34-32.4,34c-12.6-0.1-24-7.4-29.3-18.8c-1-2.1-3.2-3.4-5.5-3.1c-0.4,0-0.8,0.1-1.1,0.1
				c-15.4,2.1-32.7-15.3-28-34.8c0.5-2-0.2-4.1-1.8-5.4c-6.2-5.1-9.8-12.7-9.9-20.7c0-4.9,1.4-9.7,4-13.9c6.5,5.4,14.6,8.4,23.1,8.5
				c3,0,5.4-2.4,5.4-5.4c0-3-2.4-5.4-5.4-5.4c-14.7,0-27-13.4-27-28.6c0-9.3,4.8-17.9,12.6-22.8c2.4-1.5,3.2-4.7,1.8-7.2
				c-2.3-4-3.6-8.6-3.6-13.2c0-14.6,11.9-28.6,27-28.6c14.4,0,27,13.4,27,28.6c0,3,2.4,5.4,5.4,5.4s5.4-2.4,5.4-5.4
				c0-21.4-17.3-39.4-37.8-39.4c-1.8,0-3.6,0.1-5.4,0.4c0-0.1,0-0.3,0-0.4c0-11.9,9.7-21.6,21.6-21.6c5.7,0,11.2,2.3,15.3,6.3
				c2.1,2.1,5.5,2.1,7.6,0c2.1-2.1,2.1-5.5,0-7.6c-4.8-4.9-11.1-8.1-17.9-9.1c4.8-7.1,12.7-12.8,22-12.8c14.4,0,27,13.4,27,28.6
				V95.2z M238.2,191.2c8.4-0.1,16.6-3.1,23.1-8.5c2.6,4.2,4,9,4,13.9c0,8-3.7,15.6-9.9,20.7c-1.6,1.3-2.3,3.4-1.8,5.4
				c0.5,2.1,0.8,4.2,0.8,6.3c0,16.8-15.2,30.3-28.9,28.5c-0.4-0.1-0.8-0.1-1.1-0.1c-2.3-0.3-4.5,1-5.5,3.1
				c-5.3,11.4-16.7,18.8-29.3,18.8c-17.6,0-32.4-15.6-32.4-34c0-17.9,14.5-32.4,32.4-32.4c3,0,5.4-2.4,5.4-5.4c0-3-2.4-5.4-5.4-5.4
				c-12.4,0-24.2,5.3-32.4,14.7V113.9c0-6,4.8-10.8,10.8-10.8c3,0,5.4-2.4,5.4-5.4c0-3-2.4-5.4-5.4-5.4c-3.8,0-7.5,1-10.8,2.9V52.9
				c0-15.3,12.6-28.6,27-28.6c9.3,0,17.2,5.7,22,12.8c-6.8,1-13.1,4.2-17.9,9.1c-2.1,2.1-2.1,5.5,0,7.6c2.1,2.1,5.5,2.1,7.6,0
				c8.4-8.4,22.1-8.4,30.6,0c4.1,4.1,6.3,9.6,6.3,15.3c0,0.1,0,0.3,0,0.4c-1.8-0.3-3.6-0.4-5.4-0.4c-20.5,0-37.8,18.1-37.8,39.4
				c0,3,2.4,5.4,5.4,5.4c3,0,5.4-2.4,5.4-5.4c0-15.3,12.6-28.6,27-28.6c15.1,0,27,14,27,28.6c0,4.7-1.3,9.2-3.6,13.2
				c-1.4,2.5-0.6,5.7,1.8,7.2c7.9,4.9,12.6,13.5,12.6,22.8c0,15.3-12.4,28.6-27,28.6c-3,0-5.4,2.4-5.4,5.4
				C232.8,188.8,235.2,191.2,238.2,191.2L238.2,191.2L238.2,191.2z"/>
		</g>
	</g>
	<g id="Group_528" transform="translate(21.823 45.283)">
		<g id="Group_527">
			<path id="Path_97" d="M112.3,83.8c-2-2.2-5.4-2.4-7.6-0.4c0,0,0,0,0,0c-11.2,9.9-28.3,8.9-38.2-2.3c-4.4-4.9-6.8-11.3-6.8-17.9
				c0-3-2.4-5.4-5.4-5.4c-3,0-5.4,2.4-5.4,5.4c0,18.5,13.4,34.3,31.7,37.3c-2.1,6.7-8.4,11.3-15.5,11.3c-3,0-5.4,2.4-5.4,5.4
				c0,3,2.4,5.4,5.4,5.4c0,0,0,0,0,0c13,0,24.1-9.2,26.5-21.9c7.6-1,14.6-4.2,20.3-9.3C114.1,89.4,114.3,86,112.3,83.8z"/>
		</g>
	</g>
	<g id="Group_530" transform="translate(21.823 106.114)">
		<g id="Group_529">
			<path id="Path_98" d="M54.3,117.5c-3,0-5.4,2.4-5.4,5.4c0,3,2.4,5.4,5.4,5.4c14.4,0,27,13.4,27,28.6c0,3,2.4,5.4,5.4,5.4
				c3,0,5.4-2.4,5.4-5.4C92.1,135.6,74.8,117.5,54.3,117.5z"/>
		</g>
	</g>
	<g id="Group_532" transform="translate(24.66 84.291)">
		<g id="Group_531">
			<path id="Path_99" d="M94.7,96.1c-17.5,0-33.7,9.4-42.3,24.6c-1.4,2.6-0.5,5.9,2.2,7.3c2.6,1.4,5.8,0.5,7.2-2
				c6.7-11.9,19.3-19.2,32.9-19.2c3,0,5.4-2.4,5.4-5.4C100.1,98.5,97.7,96.1,94.7,96.1C94.7,96.1,94.7,96.1,94.7,96.1z"/>
		</g>
	</g>
	<g id="Group_534" transform="translate(70.926 45.283)">
		<g id="Group_533">
			<path id="Path_100" d="M145.7,111.9c-7.1,0-13.3-4.6-15.5-11.3c18.3-3,31.6-18.8,31.7-37.3c0-3-2.4-5.4-5.4-5.4
				c-3,0-5.4,2.4-5.4,5.4c0,0,0,0,0,0c0,14.9-12.1,27-27,27c-6.6,0-13.1-2.4-18-6.9c-2.2-2-5.6-1.9-7.6,0.3c-2,2.2-1.9,5.6,0.3,7.6
				c0,0,0.1,0.1,0.1,0.1c5.7,5.1,12.8,8.3,20.3,9.3c2.5,12.7,13.6,21.9,26.5,21.9c3,0,5.4-2.4,5.4-5.4
				C151.1,114.3,148.7,111.9,145.7,111.9C145.7,111.9,145.7,111.9,145.7,111.9L145.7,111.9z"/>
		</g>
	</g>
	<g id="Group_536" transform="translate(81.836 106.114)">
		<g id="Group_535">
			<path id="Path_101" d="M145.6,117.5c-20.5,0-37.8,18.1-37.8,39.4c0,3,2.4,5.4,5.4,5.4c3,0,5.4-2.4,5.4-5.4c0,0,0,0,0,0
				c0-15.3,12.6-28.6,27-28.6c3,0,5.4-2.4,5.4-5.4C151,119.9,148.6,117.5,145.6,117.5C145.6,117.5,145.6,117.5,145.6,117.5
				L145.6,117.5z"/>
		</g>
	</g>
	<g id="Group_538" transform="translate(76.38 84.291)">
		<g id="Group_537">
			<path id="Path_102" d="M150.1,120.7c-8.6-15.2-24.8-24.7-42.3-24.6c-3,0-5.4,2.4-5.4,5.4c0,3,2.4,5.4,5.4,5.4
				c13.6,0,26.2,7.3,32.9,19.2c1.5,2.6,4.8,3.4,7.4,1.9C150.6,126.5,151.5,123.3,150.1,120.7z"/>
		</g>
	</g>
</g>
</svg>
