<?xml version="1.0" encoding="utf-8"?>
<!-- Generator: Adobe Illustrator 24.0.0, SVG Export Plug-In . SVG Version: 6.00 Build 0)  -->
<svg version="1.1" id="Layer_1" xmlns="http://www.w3.org/2000/svg" xmlns:xlink="http://www.w3.org/1999/xlink" x="0px" y="0px"
	 viewBox="0 0 303.5 303.5" style="enable-background:new 0 0 303.5 303.5;" xml:space="preserve">
<style type="text/css">
	.st0{fill:#F6A01F;}
</style>
<g id="Group_545" transform="translate(0.008 0.008)">
	<path id="Path_107" class="st0" d="M120.3,286.3h67.8v-18.5l13.2-7.6l7.8-30.5l-2-49h-51c-22.1,0-43.2,8.8-58.8,24.4l0,0V237
		l6.4,19.6l9.2,7.3l3.4,5.6l3.6,2L120.3,286.3z"/>
	<path id="Path_108" d="M292.3,75c-1.6-1.6-4.3-1.6-5.9,0c0,0,0,0,0,0l-21.6,21.6c-0.9,0.9-1.4,2.3-1.2,3.6l1.3,8.2
		c1.8,11.3-1.9,22.7-9.9,30.8l-36.7,36.7c-2,2-4.8,2.8-7.5,2.3v-18.5l17.2-17.2c1.6-1.6,1.6-4.3,0-5.9s-4.3-1.6-5.9,0l-11.3,11.3
		v-16c0-9.1-7.3-16.4-16.4-16.4c-3.1,0-6.2,0.9-8.9,2.6c-2.7-8.6-11.9-13.4-20.6-10.7c-1.1,0.3-2.2,0.8-3.2,1.4v-2.9
		c0-4.8-2.1-9.3-5.7-12.4L167,82.8l0,0l16.2-16.2l0,0l4.2-4.2c6.5-6.5,15.8-9.3,24.9-7.5l3.8,0.8c2.2,0.4,4.5-0.2,6-1.8L259,16.9
		c1.6-1.7,1.5-4.3-0.2-5.9c-1.6-1.5-4.1-1.5-5.7,0l-36.3,36.3l-2.9-0.6c-11.8-2.4-23.9,1.3-32.4,9.8l-3.8,3.8l0,0l-0.1,0.1l-1.4,1.4
		l0,0l-14.6,14.6l0,0l-9.5,9.5l-29.4-29.4c-8.5-8.5-20.7-12.2-32.4-9.8l-2.9,0.6L50.9,11.1c-1.6-1.6-4.3-1.6-5.9,0
		c-1.6,1.6-1.6,4.3,0,5.9l36.9,36.9c1.6,1.6,3.8,2.3,6,1.8l3.8-0.8c9-1.8,18.4,1,24.9,7.5l27.2,27.2c-6,0.6-11.2,4.5-13.5,10.1
		c-7.4-5.2-17.7-3.3-22.8,4.1c-1.9,2.7-2.9,6-2.9,9.4v46.5c-0.4-0.5-0.8-1-1.3-1.5l-21.6-21.6c-1.6-1.6-4.3-1.6-5.9,0
		s-1.6,4.3,0,5.9L97.4,164c0.7,0.7,1.3,1.5,1.7,2.4c-3.9,2.8-6.4,7.1-6.9,11.8c-2.4,0.2-4.8-0.7-6.6-2.4l-22.9-22.9l-15.8-16
		c-6.7-7.9-9.6-18.4-7.9-28.6l1.3-8.2c0.2-1.3-0.2-2.7-1.2-3.6L17,74.4c-1.7-1.6-4.3-1.5-5.9,0.2c-1.5,1.6-1.5,4.1,0,5.7l20.7,20.7
		l-1,6.1c-2,12.1,1.2,24.4,8.7,34.1l0,0c0.3,0.4,0.7,0.9,1,1.3c0.3,0.4,0.7,0.7,1.1,0.9l11,11.3c0.2,0.2,0.3,0.5,0.5,0.7l26.5,26.5
		c3.1,3.1,7.4,4.9,11.8,4.9c0.2,0,0.4,0,0.6,0V232c0,14.1,6.8,27.3,18.2,35.5l5,3.6v18.4c0.1,2.3,2,4.1,4.2,4.1c2.2,0,4-1.8,4.1-4.1
		V269c0-1.3-0.6-2.6-1.7-3.4l-6.7-4.8c-9.3-6.7-14.7-17.4-14.8-28.8v-51.9c0-4.6,3.7-8.4,8.4-8.4c4.6,0,8.4,3.7,8.4,8.4v30.5
		c0.1,2.3,2,4.1,4.2,4.1c2.2,0,4-1.8,4.1-4.1v-30.5c0-7.6-5.2-14.3-12.5-16.2v-50.8c0-4.5,3.6-8.1,8.1-8.1c4.5,0,8.1,3.6,8.1,8.1
		v54.4c0.1,2.3,2,4.1,4.2,4.1c2.2,0,4-1.8,4.1-4.1v-61.6c0-4.5,3.6-8.1,8.1-8.1s8.1,3.6,8.1,8.1v63.8c0.1,2.3,2,4.1,4.2,4.1
		c2.2,0,4-1.8,4.1-4.1v-46.6c0-4.5,3.6-8.1,8.1-8.1c4.5,0,8.1,3.6,8.1,8.1c0,0,0,0,0,0v46.6c0.1,2.3,2,4.1,4.2,4.1
		c2.2,0,4-1.8,4.1-4.1v-37.8c0-4.5,3.6-8.1,8.1-8.1c4.5,0,8.1,3.6,8.1,8.1c0,0,0,0,0,0v106.4c0,9.2-4.6,17.8-12.3,22.9l-3.2,2.2
		c-1.9,1.2-3,3.3-3,5.6v20.7c0.1,2.3,2,4.1,4.2,4.1c2.2,0,4-1.8,4.1-4.1v-19.8l2.5-1.6c10-6.6,16-17.8,16-29.8v-51.8
		c0.5,0.1,1,0.1,1.6,0.1c4.4,0,8.7-1.8,11.8-4.9L261,145c9.9-10,14.5-24.1,12.2-38l-1-6.1l20.1-20.1C293.9,79.2,294,76.6,292.3,75
		C292.3,75,292.3,75,292.3,75z"/>
</g>
</svg>
