<?xml version="1.0" encoding="utf-8"?>
<!-- Generator: Adobe Illustrator 24.0.0, SVG Export Plug-In . SVG Version: 6.00 Build 0)  -->
<svg version="1.1" id="Layer_1" xmlns="http://www.w3.org/2000/svg" xmlns:xlink="http://www.w3.org/1999/xlink" x="0px" y="0px"
	 viewBox="0 0 303.5 303.5" style="enable-background:new 0 0 303.5 303.5;" xml:space="preserve">
<style type="text/css">
	.st0{fill:#F5A121;}
	.st1{fill:#010101;}
</style>
<g>
	<path id="Path_77" class="st0" d="M141.1,92.4l-44.8,37.5l9.9,2.9h137.3v-15.1l-2.4-27.4L141.1,92.4z"/>
	<g id="Group_511">
		<path id="Path_78" class="st1" d="M57.5,191.5c-6.9,0-12.5,5.6-12.5,12.5c0,6.9,5.5,12.5,12.5,12.5S70,210.9,70,204
			C69.9,197.1,64.4,191.5,57.5,191.5z M57.5,207.7c-2.2,0-3.9-1.7-3.9-3.9c0-2.2,1.7-3.9,3.9-3.9c2.2,0,3.9,1.7,3.9,3.9
			C61.3,206,59.6,207.7,57.5,207.7L57.5,207.7z"/>
		<path id="Path_79" class="st1" d="M247.2,191.5c-6.9,0-12.5,5.6-12.5,12.5c0,6.9,5.6,12.5,12.5,12.5c6.9,0,12.5-5.6,12.5-12.5
			C259.7,197.1,254.1,191.5,247.2,191.5z M247.2,207.7c-2.2,0-3.9-1.7-3.9-3.9c0-2.2,1.7-3.9,3.9-3.9c2.2,0,3.9,1.7,3.9,3.9l0,0
			C251.1,206,249.3,207.7,247.2,207.7L247.2,207.7z"/>
		<path id="Path_80" class="st1" d="M287.8,167v-39.3c0-5-1.3-9.7-3.8-14l-5.1-8.5c-1.2-2-3.9-2.8-5.9-1.5c-2,1.3-2.8,3.9-1.5,5.9
			l5.1,8.5c1.7,2.9,2.6,6.3,2.6,9.6v0.6h-8.7c-5.1,0-9.1,4.1-9.1,9.1v24.7c0,5.1,4.1,9.1,9.1,9.1h8.7c0.3,2.2,2.2,3.8,4.3,3.8h0.2
			c3.7,0,6.6,2.9,6.6,6.6v7H273c-8.4-14.1-26.6-18.9-40.9-10.5c-4.3,2.6-7.9,6.1-10.5,10.5h-43.6l5.4-12.1c0.5-1.3,0.9-2.7,0.9-4.2
			v-35.4h29c2.4,0.1,4.4-1.8,4.4-4.2c0.1-2.4-1.8-4.4-4.2-4.4c-0.1,0-0.2,0-0.2,0h-20.3v-33h47.6v33.2h-8.7
			c-2.4-0.1-4.4,1.8-4.4,4.2c-0.1,2.4,1.8,4.4,4.2,4.4c0.1,0,0.2,0,0.2,0h8.7c4.9,0,8.7-3.9,8.7-8.7V93.8c0-4-3.2-7.1-7.1-7.1H141.4
			c-1.7,0-3.5,0.6-4.7,1.7l-47.3,41.2c-1.8,1.6-2,4.3-0.4,6.1c0.9,1,2,1.5,3.2,1.5h83.7v35.4c0,0.2,0,0.4-0.1,0.6l-7,15.6h-49.4
			c-2.4-0.1-4.4,1.8-4.4,4.2c-0.1,2.4,1.8,4.4,4.2,4.4c0.1,0,0.2,0,0.2,0h98.9c-0.5,2.2-0.8,4.4-0.8,6.6c0,0.8,0,1.4,0.1,2.2H87.2
			c0-0.8,0.1-1.4,0.1-2.2c0-2.3-0.2-4.4-0.8-6.6h14.2c2.4,0.1,4.4-1.8,4.4-4.2c0.1-2.4-1.8-4.4-4.2-4.4c-0.1,0-0.2,0-0.2,0H83.1
			c-3.1-5.2-7.7-9.3-13.2-11.9v-42.1l62.1-54c2-1.8,4.7-2.8,7.4-2.8h102.4c6.7,0,12.9,3.6,16.4,9.4l3.8,6.4c1.1,2.2,3.8,2.9,5.8,1.7
			c2-1.2,2.9-3.8,1.7-5.8c-0.1-0.1-0.1-0.2-0.2-0.3l-3.8-6.4c-5-8.4-14-13.6-23.8-13.7H139.3c-4.9,0-9.5,1.7-13.2,5l-62.4,54.3h-29
			c-16.8,0-30.4,13.6-30.4,30.4v46.6c0,5.2,4.2,9.3,9.4,9.4h16.1c5.9,15.3,23.3,23,38.6,17c7.8-3,14-9.2,17-17h134.1
			c5.9,15.3,23.3,23,38.6,17c7.8-3,14-9.2,17-17h14.6c5.2,0,9.4-4.2,9.4-9.4V182C298.8,174.8,294.4,168.9,287.8,167L287.8,167z
			 M270.5,137.1h8.7v8.4H270v-8C270,137.3,270.3,137.1,270.5,137.1L270.5,137.1z M270,162.2v-8h9.2v8.4h-8.7
			C270.3,162.7,270,162.4,270,162.2L270,162.2z M175.7,95.3h8.6v33.2h-8.6V95.3z M141.8,95.3h25.2v33.2h-63.4L141.8,95.3z
			 M61.3,137.1v37.2c-1.3-0.2-2.6-0.2-3.9-0.2c-10.6,0-20.3,5.6-25.7,14.7c-0.1,0-0.3,0-0.4,0H13v-21.9h11.8
			c7.2,0.1,13.2-5.7,13.3-12.9s-5.7-13.2-12.9-13.3c-0.1,0-0.2,0-0.3,0h-1.9c3.6-2.3,7.7-3.6,11.9-3.6H61.3L61.3,137.1z M24.7,149.3
			c2.5,0,4.4,1.9,4.4,4.4s-1.9,4.4-4.4,4.4l0,0H13c0.1-3,0.9-6,2.2-8.8L24.7,149.3L24.7,149.3z M13.6,206.1c-0.3,0-0.6-0.3-0.6-0.6
			v-8.1h15.4c-0.5,2.2-0.8,4.4-0.8,6.6c0,0.8,0,1.4,0.1,2.2H13.6L13.6,206.1z M57.5,225.1c-11.6,0-21.1-9.5-21.1-21.1
			c0-11.6,9.5-21.1,21.1-21.1s21.1,9.5,21.1,21.1l0,0C78.6,215.6,69.1,225.1,57.5,225.1z M247.2,225.1c-11.6,0-21.1-9.5-21.1-21.1
			c0-11.6,9.5-21.1,21.1-21.1c11.6,0,21.1,9.5,21.1,21.1l0,0C268.4,215.6,258.9,225.1,247.2,225.1z M289.6,206.1h-12.6
			c0-0.8,0.1-1.4,0.1-2.2c0-2.3-0.2-4.4-0.8-6.6h13.9v8.1C290.2,205.8,289.9,206.1,289.6,206.1L289.6,206.1L289.6,206.1z"/>
		<path id="Path_81" class="st1" d="M164.6,152.5c2.4,0.1,4.4-1.8,4.4-4.2c0.1-2.4-1.8-4.4-4.2-4.4c-0.1,0-0.2,0-0.2,0h-8.4
			c-2.4-0.1-4.4,1.8-4.4,4.2c-0.1,2.4,1.8,4.4,4.2,4.4c0.1,0,0.2,0,0.2,0H164.6z"/>
	</g>
	<rect id="Rectangle_596" x="94.1" y="188.6" class="st1" width="39.3" height="8.6"/>
	<rect id="Rectangle_597" x="197.5" y="128.5" class="st1" width="39.3" height="8.6"/>
	<path id="Path_82" class="st1" d="M260.9,91.4l13,22.2l7.1-5.1l-12.5-21.2L260.9,91.4z"/>
</g>
</svg>
