<?xml version="1.0" encoding="utf-8"?>
<!-- Generator: Adobe Illustrator 24.0.0, SVG Export Plug-In . SVG Version: 6.00 Build 0)  -->
<svg version="1.1" id="Layer_1" xmlns="http://www.w3.org/2000/svg" xmlns:xlink="http://www.w3.org/1999/xlink" x="0px" y="0px"
	 viewBox="0 0 303.5 303.5" style="enable-background:new 0 0 303.5 303.5;" xml:space="preserve">
<style type="text/css">
	.st0{fill:#F15A29;}
</style>
<g>
	<g id="Group_514">
		<path id="Path_83" d="M232.8,69c0-19.2-12.6-49.7-46.3-49.7c-13.9,0-25.5,6.5-34.7,19.4c-9.2-12.9-20.9-19.4-34.7-19.4
			c-33.7,0-46.3,30.5-46.3,49.7c0,33.1,25.8,53.8,61.1,84c5.2,4.4,10.6,9,16.3,14c2.1,1.8,5.2,1.8,7.2,0c5.7-5,11.1-9.5,16.3-14
			C208.6,121.4,232.8,101.4,232.8,69L232.8,69z M151.8,155.5c-4.4-3.8-8.6-7.4-12.7-10.9C102.1,113,81.8,95.6,81.8,69
			c0-18.1,11.8-38.6,35.2-38.6c12.2,0,22,7,29.9,21.5c1.5,2.7,4.8,3.7,7.5,2.2c0.9-0.5,1.7-1.3,2.2-2.2
			c7.9-14.4,17.7-21.5,29.9-21.5c23.1,0,35.2,20.3,35.2,38.6c0,26.6-20.3,44-57.3,75.6C160.4,148.1,156.1,151.7,151.8,155.5
			L151.8,155.5z"/>
		<path id="Path_84" d="M50.1,235.7L76.7,249v29.7c0,3,2.5,5.5,5.5,5.5h58.5c3,0,5.5-2.5,5.5-5.5v-72c0.1-16.8-12.7-31-29.5-32.6
			l-0.5,0c-9.7-1-26.9-7.6-33.7-14.4l-12.4-12.4c-4.1-4.2-9.7-6.5-15.6-6.5V96.6c0-12.2-9.9-22.1-22.1-22.1s-22.1,9.9-22.1,22.1l0,0
			v75C10.5,198.7,25.8,223.5,50.1,235.7L50.1,235.7z M21.5,96.6c0-6.1,4.9-11,11-11c6.1,0,11,4.9,11,11v47.1
			c-10.6,6.1-14.2,19.6-8.1,30.1c1,1.7,2.1,3.2,3.5,4.6l28.3,28.3c2.1,2.2,5.6,2.2,7.8,0.1c2.2-2.1,2.2-5.6,0.1-7.8
			c0,0-0.1-0.1-0.1-0.1l-28.3-28.3c-4.3-4.3-4.3-11.3,0-15.6c1.2-1.2,2.6-2.1,4.1-2.6l0,0c4-1.4,8.5-0.4,11.5,2.6l12.4,12.4
			c12.8,12.8,40.7,17.6,40.8,17.6c11.1,1.1,19.6,10.5,19.6,21.6v66.5H87.7v-27.6c0-2.1-1.2-4-3.1-4.9l-29.6-14.8
			c-20.6-10.2-33.6-31.3-33.6-54.3V96.6z"/>
		<path id="Path_85" d="M253.4,235.7c24.3-12.2,39.7-37,39.7-64.2v-75c0-12.2-9.9-22.1-22.1-22.1c-12.2,0-22.1,9.9-22.1,22.1v44.2
			c-5.9,0-11.5,2.3-15.6,6.5l-12.4,12.4c-6.8,6.8-24,13.4-33.7,14.4l-0.5,0c-16.7,1.7-29.5,15.8-29.4,32.6v72c0,3,2.5,5.5,5.5,5.5
			h58.5c3,0,5.5-2.5,5.5-5.5V249L253.4,235.7L253.4,235.7z M282,171.5c0.1,23-12.9,44.1-33.6,54.3l-29.6,14.8
			c-1.9,0.9-3.1,2.8-3.1,4.9v27.6h-47.5v-66.5c0-11.2,8.4-20.5,19.6-21.6c0.1,0,28-4.8,40.8-17.6l12.4-12.4c3-3,7.5-4,11.5-2.6l0,0
			c5.7,2,8.8,8.3,6.7,14.1c-0.5,1.6-1.4,3-2.6,4.1l-28.3,28.3c-2.1,2.2-2.1,5.7,0.1,7.8c2.1,2.1,5.5,2.1,7.7,0l28.3-28.3
			c8.6-8.6,8.6-22.6,0-31.2c-1.4-1.4-2.9-2.5-4.6-3.5V96.6c0-6.1,5-11,11.1-11c6.1,0,11,4.9,11,11L282,171.5L282,171.5z"/>
	</g>
	<g id="XMLID_2_" transform="translate(31.48 4.874)">
		<g id="Group_515">
			<path id="Path_86" class="st0" d="M155,25.5c23.1,0,35.2,20.3,35.2,38.6c0,26.6-20.3,44-57.3,75.6c-4.1,3.5-8.3,7.1-12.7,10.9
				c-4.4-3.8-8.6-7.4-12.7-10.9c-36.9-31.6-57.3-49-57.3-75.6c0-18.1,11.8-38.6,35.2-38.6c12.2,0,22,7,29.9,21.5
				c1.5,2.7,4.8,3.7,7.5,2.2c0.9-0.5,1.7-1.3,2.2-2.2C133,32.5,142.8,25.5,155,25.5z"/>
		</g>
	</g>
</g>
</svg>
