<?xml version="1.0" encoding="utf-8"?>
<!-- Generator: Adobe Illustrator 24.0.0, SVG Export Plug-In . SVG Version: 6.00 Build 0)  -->
<svg version="1.1" id="Layer_1" xmlns="http://www.w3.org/2000/svg" xmlns:xlink="http://www.w3.org/1999/xlink" x="0px" y="0px"
	 viewBox="0 0 303.5 303.5" style="enable-background:new 0 0 303.5 303.5;" xml:space="preserve">
<style type="text/css">
	.st0{fill:#8CC340;}
</style>
<g id="Group_510" transform="translate(0.001)">
	<g id="Group_511_1_" transform="translate(-0.001 0)">
		<g id="Group_510_1_">
			<path id="Path_77_1_" d="M251.1,153.4V21.2h10c3.1-0.1,5.5-2.6,5.4-5.7c-0.1-2.9-2.4-5.3-5.4-5.4h-15.6c-3.1,0-5.5,2.5-5.5,5.5
				v16.7h-1.9c-14,0-25.4,11.4-25.4,25.5v31.9h-79.3c-3.1-0.1-5.6,2.3-5.8,5.3c-0.1,3.1,2.3,5.6,5.3,5.8c0.1,0,0.1,0,0.2,0h79.5
				v15.4H90.1v-9.3c0-3.3,2.7-6,6-6H133c3.1-0.1,5.5-2.6,5.4-5.7c-0.1-2.9-2.4-5.3-5.4-5.4H96.1c-9.4,0-17,7.6-17.1,17.1v14.9
				c0,3.1,2.5,5.5,5.5,5.6h27.2v26.5H90.5c-15.3,0-27.7,12.4-27.8,27.8v51.3c-13,2.4-22.9,12.9-24.7,25.9H26.4
				c-3.1-0.1-5.6,2.3-5.8,5.3c-0.1,3.1,2.3,5.6,5.3,5.8c0.1,0,0.1,0,0.2,0h12.4c3.9,16.4,20.3,26.6,36.7,22.7s26.6-20.3,22.7-36.7
				c-2.8-11.8-12.3-20.8-24.2-23v-17.2h54.5v0.5c0.1,42.7,34.7,77.2,77.4,77.2s77.2-34.7,77.2-77.4
				C282.9,191.1,271,167.9,251.1,153.4L251.1,153.4z M223.7,57.9c0-7.9,6.5-14.4,14.4-14.4h1.9v103.2c-5.2-2.6-10.7-4.6-16.3-5.9
				V57.9z M122.8,127.2h89.8v11.7c-2.3-0.2-4.6-0.3-7-0.3c-16.5,0-32.7,5.3-45.9,15.2c-0.2,0-0.4,0-0.6,0h-36.3V127.2z M87.7,262.8
				c0,10.7-8.8,19.4-19.5,19.4c-10.7,0-19.4-8.8-19.4-19.5c0-10.7,8.7-19.4,19.5-19.4C79,243.3,87.7,252,87.7,262.8
				C87.7,262.8,87.7,262.8,87.7,262.8z M73.8,204.4v-23c0-9.2,7.5-16.7,16.7-16.7h57.2c-9.9,11.2-16.3,24.9-18.5,39.7L73.8,204.4z
				 M205.6,282.3c-36.6,0.1-66.4-29.6-66.5-66.2c-0.1-36.6,29.6-66.4,66.2-66.5s66.4,29.6,66.5,66.2c0,0,0,0,0,0v0.1
				C271.8,252.5,242.2,282.2,205.6,282.3z"/>
			<path id="Path_78_1_" d="M205.6,172.5c-24,0-43.5,19.4-43.5,43.4c0,24,19.4,43.5,43.4,43.5c24,0,43.4-19.4,43.5-43.4V216
				C249,192,229.6,172.6,205.6,172.5z M205.6,248.3c-17.9,0-32.4-14.4-32.4-32.3s14.4-32.4,32.3-32.4c17.9,0,32.4,14.4,32.4,32.3
				v0.1C237.9,233.8,223.5,248.3,205.6,248.3z"/>
			<path id="Path_79_1_" d="M153,97.4c1.2,2.8,4.4,4.2,7.2,3c2.8-1.2,4.2-4.4,3-7.2c-1.2-2.8-4.4-4.2-7.2-3c0,0,0,0,0,0
				c-0.3,0.1-0.7,0.3-1,0.5C152.9,92.1,152.1,94.9,153,97.4z"/>
		</g>
	</g>
	<circle id="Ellipse_219" class="st0" cx="205.5" cy="216" r="34.6"/>
</g>
</svg>
