<?xml version="1.0" encoding="utf-8"?>
<!-- Generator: Adobe Illustrator 24.0.0, SVG Export Plug-In . SVG Version: 6.00 Build 0)  -->
<svg version="1.1" id="Layer_1" xmlns="http://www.w3.org/2000/svg" xmlns:xlink="http://www.w3.org/1999/xlink" x="0px" y="0px"
	 viewBox="0 0 303.5 303.5" style="enable-background:new 0 0 303.5 303.5;" xml:space="preserve">
<style type="text/css">
	.st0{fill:#8CC340;}
</style>
<g>
	<path id="Path_103" class="st0" d="M24.5,84v72.2l3,21.3l8.7,12.6l17,24.2l3.9-22.9l3.3-20.9l11-12.2l6.6-4.4l-4.9-18.3l4.9-18.3
		l6-11.7l13.5-3l9.6,0.4l17.4,4.9l9.9,12.1c0,0-1,13.1,0,13.1s-2.1,13.4-2.1,13.4l-1.3,9.1l3.6,5.4l12.5,10.3l4.7,6.5l7.1-6.5
		l5.2-6.1l11.1-7l-6-18.3v-16.2l6-8.2l7.2-7.7l16.1-2.7l4.8-2.6l8.3,3l14,7c0,0,5.1,9.9,5.5,11.2c0.4,1.4,0,16.2,0,16.2l-3.1,11.7
		l1.3,6.6l9.6,7.8l6.1,7.4l4.3,9.1v9.1l3.5,10.5l2.2,6.5l16.5-23.8l8.7-17.9V77c0,0-89.1-23-127.8-66.5c0,0-84.3,70.9-127.8,65.2
		L24.5,84L24.5,84z"/>
	<g id="Group_543" transform="translate(0 0)">
		<g id="Group_542-2">
			<path id="Path_104" d="M281.3,69.4c-16-3.3-31.6-7.9-46.8-13.8c-3-1.1-6.3,0.3-7.4,3.3c-1.1,3,0.3,6.3,3.3,7.4
				c14.3,5.5,29.1,10,44.1,13.3v70.1c0,13.8-7.2,32.1-19.8,51.7v-10.9c0-21.6-11.7-32.3-22.9-38.4c10.5-17.3,5-39.8-12.3-50.3
				c-17.3-10.5-39.8-5-50.3,12.3c-7.1,11.7-7.1,26.4,0,38c-7.1,3.5-13,9-17.2,15.7c-4.2-6.7-10.1-12.1-17.2-15.7
				c10.5-17.3,5-39.8-12.3-50.3s-39.8-5-50.3,12.3c-7.1,11.7-7.1,26.4,0,38.1C60.7,158.2,49,168.9,49,190.5v10.9
				c-12.6-19.6-19.9-38-19.9-51.8V79.6C94.8,64.7,128,37.4,146,22.6c2.1-1.7,4-3.3,5.8-4.7c1.8,1.4,3.7,3,5.8,4.7
				c8.4,7.1,17.1,13.7,26.2,19.8c2.6,1.8,6.2,1.1,8-1.5c1.8-2.6,1.1-6.2-1.5-8c-0.1,0-0.1-0.1-0.2-0.1c-8.8-5.9-17.2-12.3-25.2-19.1
				c-3.7-3.1-6.9-5.7-9.8-7.7c-2-1.4-4.7-1.4-6.7,0c-2.9,2-6.1,4.7-9.8,7.7C119.8,29.3,88.2,55.3,22.2,69.4
				c-2.7,0.6-4.5,2.9-4.5,5.6v74.7c0,13.2,5,28.9,15,46.8c9.9,17.3,21.7,33.3,35.3,47.9c24,26.2,58.7,54.2,83.8,54.2
				s59.8-28,83.8-54.2c6.3-6.9,12.2-14,17.6-21.1c0.1-0.2,12.8-18.2,17.6-26.8c10-17.9,15-33.6,15-46.8V75
				C285.8,72.3,283.9,70,281.3,69.4L281.3,69.4z M200.3,107.9c13.9,0,25.2,11.3,25.2,25.2s-11.3,25.2-25.2,25.2
				c-13.9,0-25.2-11.3-25.2-25.2c0,0,0,0,0,0C175.1,119.2,186.4,108,200.3,107.9z M151.8,184.9c9.6,0,17.4,7.8,17.4,17.3
				c0,9.6-7.8,17.4-17.3,17.4s-17.4-7.8-17.4-17.3c0,0,0,0,0,0C134.4,192.7,142.2,184.9,151.8,184.9z M103.2,107.9
				c13.9,0,25.2,11.3,25.2,25.2s-11.3,25.2-25.2,25.2c-13.9,0-25.2-11.3-25.2-25.2c0,0,0,0,0,0C78.1,119.2,89.3,108,103.2,107.9z
				 M109.8,245.1v22.2c-12-9.2-23.2-19.5-33.4-30.7c-5.8-6.3-11.1-12.6-15.9-18.9v-27.1c0-16.9,8.8-24.5,19.1-29.5
				c13.6,11.6,33.7,11.6,47.3,0c6.6,2.8,12.1,7.7,15.7,13.9c-15.1,5.1-23.2,21.4-18.2,36.5c0.5,1.6,1.2,3.1,1.9,4.5
				C115.7,221.6,109.2,233,109.8,245.1L109.8,245.1z M182.3,275.3c-11.9,7.5-22.5,11.8-30.5,11.8s-18.6-4.3-30.5-11.8v-30.2
				c0-11.4,5.7-16.7,12.6-20.3c10.5,8.3,25.3,8.3,35.7,0c6.9,3.5,12.6,8.9,12.6,20.3L182.3,275.3L182.3,275.3z M243.1,217.7
				c-4.9,6.3-10.2,12.7-16,19c-10.2,11.2-21.4,21.5-33.4,30.7v-22.2c0.6-12.1-5.9-23.5-16.6-29.2c7.5-14,2.3-31.5-11.7-39
				c-1.4-0.8-2.9-1.4-4.5-1.9c3.6-6.2,9.1-11.1,15.7-13.9c13.6,11.6,33.7,11.6,47.3,0c10.3,5,19.1,12.5,19.1,29.5L243.1,217.7z"/>
			<path id="Path_105" d="M206.3,55.6L206.3,55.6c0.8,0.4,1.7,0.6,2.6,0.6c3.2,0,5.8-2.6,5.8-5.7c0-3.2-2.6-5.8-5.7-5.8
				c-3.2,0-5.8,2.6-5.8,5.7C203.2,52.6,204.4,54.6,206.3,55.6z"/>
		</g>
	</g>
	<g id="Group_544" transform="translate(37.902 0)">
		<path id="Path_106" d="M236.5,123.9V79.6c-65.7-14.9-98.8-42.2-116.8-57.1c-2.1-1.7-4-3.3-5.8-4.7c-1.8,1.4-3.7,3-5.8,4.7
			c-8.4,7.1-17.1,13.7-26.2,19.8c-2.6,1.8-6.2,1.1-8-1.5c-1.8-2.6-1.1-6.2,1.5-8c0.1,0,0.1-0.1,0.2-0.1c8.8-5.9,17.2-12.3,25.3-19.1
			c3.7-3.1,6.9-5.7,9.8-7.7c2-1.4,4.7-1.4,6.7,0c2.9,2,6.1,4.7,9.8,7.7c18.9,15.6,50.5,41.6,116.5,55.7c2.6,0.6,4.5,2.9,4.5,5.6
			v48.9H236.5z"/>
	</g>
</g>
</svg>
