<?xml version="1.0" encoding="utf-8"?>
<!-- Generator: Adobe Illustrator 24.0.0, SVG Export Plug-In . SVG Version: 6.00 Build 0)  -->
<svg version="1.1" id="Layer_1" xmlns="http://www.w3.org/2000/svg" xmlns:xlink="http://www.w3.org/1999/xlink" x="0px" y="0px"
	 viewBox="0 0 303.5 303.5" style="enable-background:new 0 0 303.5 303.5;" xml:space="preserve">
<style type="text/css">
	.st0{fill:#FAED5E;}
</style>
<g>
	<path id="Path_92" class="st0" d="M151.8,112.4c40.7,0,76.6,26.7,88.3,65.7c14.5-48.8-13.2-100.1-61.9-114.6S78,76.7,63.5,125.5
		c-5.1,17.2-5.1,35.5,0,52.7C75.1,139.2,111,112.4,151.8,112.4z"/>
	<g id="XMLID_1_">
		<g id="XMLID_24_" transform="translate(19.053 19.05)">
			<path id="XMLID_25_" d="M132.7,232.3c-50.1,0-92.4-37.1-98.8-86.7c-2.7-21.4,1.5-43,12-61.8c1.5-2.7,5-3.7,7.7-2.2
				c2.7,1.5,3.7,5,2.2,7.7c0,0,0,0,0,0c-24,42.5-8.9,96.4,33.6,120.3c42.5,24,96.4,8.9,120.3-33.6s8.9-96.4-33.6-120.3
				c-26.9-15.2-59.8-15.2-86.8,0c-2.7,1.5-6.2,0.6-7.7-2.1c-1.5-2.7-0.6-6.2,2.1-7.7l0,0c18.8-10.5,40.5-14.7,61.8-12
				c21.8,2.8,42.1,12.7,57.6,28.4c38.9,38.9,38.9,101.9,0.1,140.9C184.5,221.8,159.2,232.3,132.7,232.3z"/>
		</g>
		<g id="XMLID_22_" transform="translate(58.573)">
			<path id="XMLID_23_" d="M93.2,40.8c-3.1,0-5.7-2.5-5.7-5.7V12.5c0-3.1,2.5-5.7,5.7-5.7s5.7,2.5,5.7,5.7c0,0,0,0,0,0v22.6
				C98.8,38.3,96.3,40.8,93.2,40.8z"/>
		</g>
		<g id="XMLID_20_" transform="translate(94.34 10.368)">
			<path id="XMLID_21_" d="M142.5,62c-3.1,0-5.7-2.5-5.7-5.7c0-1.5,0.6-2.9,1.7-4L168,22.8c2.2-2.2,5.8-2.1,8,0.1
				c2.1,2.2,2.1,5.7,0,7.9l-29.6,29.6C145.4,61.4,144,62,142.5,62z"/>
		</g>
		<g id="XMLID_18_" transform="translate(10.368 10.368)">
			<path id="XMLID_19_" d="M56.3,62c-1.5,0-2.9-0.6-4-1.7L22.8,30.8c-2.2-2.2-2.1-5.8,0.1-8c2.2-2.1,5.7-2.1,7.9,0l29.6,29.6
				c2.2,2.2,2.2,5.8,0,8C59.3,61.4,57.8,62,56.3,62L56.3,62z"/>
		</g>
		<g id="XMLID_16_" transform="translate(94.34 94.34)">
			<path id="XMLID_17_" d="M172,177.7c-1.5,0-2.9-0.6-4-1.7l-29.6-29.6c-2.2-2.2-2.3-5.8-0.1-8c2.2-2.2,5.8-2.3,8-0.1
				c0,0,0.1,0.1,0.1,0.1L176,168c2.2,2.2,2.2,5.8,0,8C175,177.1,173.5,177.7,172,177.7L172,177.7z"/>
		</g>
		<g id="XMLID_14_" transform="translate(10.368 94.34)">
			<path id="XMLID_15_" d="M26.8,177.7c-3.1,0-5.7-2.5-5.7-5.7c0-1.5,0.6-2.9,1.7-4l29.6-29.6c2.2-2.2,5.8-2.3,8-0.1
				c2.2,2.2,2.3,5.8,0.1,8c0,0-0.1,0.1-0.1,0.1L30.8,176C29.7,177.1,28.3,177.7,26.8,177.7z"/>
		</g>
		<g id="XMLID_12_" transform="translate(58.573 107.622)">
			<path id="XMLID_13_" d="M93.2,189.1c-3.1,0-5.7-2.5-5.7-5.7v-22.6c0-3.1,2.5-5.7,5.7-5.7c3.1,0,5.6,2.5,5.7,5.7v22.6
				C98.8,186.5,96.3,189.1,93.2,189.1z"/>
		</g>
		<g id="XMLID_10_" transform="translate(107.622 58.573)">
			<path id="XMLID_11_" d="M183.4,98.8h-22.6c-3.1,0-5.7-2.5-5.7-5.7c0-3.1,2.5-5.6,5.7-5.7h22.6c3.1,0,5.7,2.5,5.7,5.7
				C189.1,96.3,186.5,98.8,183.4,98.8C183.4,98.8,183.4,98.8,183.4,98.8z"/>
		</g>
		<g id="XMLID_8_" transform="translate(0 58.573)">
			<path id="XMLID_9_" d="M35.1,98.8H12.5c-3.1,0-5.7-2.5-5.7-5.7s2.5-5.7,5.7-5.7c0,0,0,0,0,0h22.6c3.1,0,5.7,2.5,5.7,5.7
				C40.8,96.3,38.3,98.8,35.1,98.8C35.1,98.8,35.1,98.8,35.1,98.8z"/>
		</g>
		<g id="XMLID_6_" transform="translate(30.625 30.625)">
			<path id="XMLID_7_" d="M54.7,60.3c-3.1,0-5.7-2.5-5.7-5.7c0-3.1,2.5-5.7,5.7-5.7c3.1,0,5.7,2.5,5.7,5.7c0,1.5-0.6,2.9-1.7,4
				C57.6,59.7,56.2,60.3,54.7,60.3z"/>
		</g>
		<g id="XMLID_4_" transform="translate(19.053 19.053)">
			<path id="XMLID_5_" d="M33.1,132.7c0-50.1,37.1-92.4,86.7-98.8c21.4-2.7,43,1.5,61.8,12c2.7,1.5,3.7,5,2.2,7.7
				c-1.5,2.7-5,3.7-7.7,2.2c0,0,0,0,0,0c-42.5-24-96.4-8.9-120.3,33.6s-8.9,96.4,33.6,120.3c42.5,24,96.4,8.9,120.3-33.6
				c15.2-26.9,15.2-59.8,0-86.8c-1.5-2.7-0.6-6.2,2.2-7.7c2.7-1.5,6.2-0.6,7.7,2.1c10.5,18.8,14.7,40.5,12,61.8
				c-2.8,21.8-12.7,42.1-28.4,57.6c-38.9,38.9-101.9,38.9-140.9,0.1C43.6,184.5,33.1,159.2,33.1,132.7z"/>
		</g>
	</g>
</g>
</svg>
