<?xml version="1.0" encoding="utf-8"?>
<!-- Generator: Adobe Illustrator 24.0.0, SVG Export Plug-In . SVG Version: 6.00 Build 0)  -->
<svg version="1.1" id="Layer_1" xmlns="http://www.w3.org/2000/svg" xmlns:xlink="http://www.w3.org/1999/xlink" x="0px" y="0px"
	 viewBox="0 0 303.5 303.5" style="enable-background:new 0 0 303.5 303.5;" xml:space="preserve">
<style type="text/css">
	.st0{fill:#FAEB2F;}
</style>
<g id="Group_546" transform="translate(0 0.004)">
	<circle id="Ellipse_223" class="st0" cx="72.9" cy="221.4" r="38"/>
	<circle id="Ellipse_224" class="st0" cx="230.7" cy="221.4" r="38"/>
	<g id="Group_546-2" transform="translate(0 -0.004)">
		<path id="Path_109" d="M72.9,176.8c-24.6,0-44.6,20-44.6,44.6c0,24.6,20,44.6,44.6,44.6s44.6-20,44.6-44.6
			C117.4,196.8,97.5,176.9,72.9,176.8z M40.3,227.5c-3.4-18,8.5-35.3,26.5-38.6c4-0.7,8.1-0.7,12.1,0L40.3,227.5z M72.9,254.6
			L72.9,254.6c-1.9,0-3.7-0.2-5.5-0.5l19-19c2.2-2.3,2.2-5.9-0.1-8.1c-2.2-2.2-5.8-2.2-8,0l-22.7,22.7c-4.3-2.7-8-6.3-10.8-10.6
			l45.7-45.7c15.5,9.7,20.2,30.2,10.4,45.7C94.9,248.7,84.3,254.6,72.9,254.6L72.9,254.6z"/>
		<path id="Path_110" d="M293.5,196.8L293.5,196.8c0,0,0-0.1,0-0.1l-21.4-62l-17.8-51.5l0,0l-14.5-41.9
			c-4.2-12.3-14.1-21.7-26.5-25.3c-0.4-0.1-0.9-0.2-1.3-0.3c-11.6-2.9-24-0.3-33.4,7.1c-9.7,7.5-15.3,19.1-15.3,31.3v27.2h-22.9
			V54.2c0-12.2-5.6-23.8-15.3-31.3c-9.4-7.4-21.8-10.1-33.4-7.1c-0.4,0.1-0.9,0.2-1.3,0.3c-12.4,3.6-22.3,13-26.5,25.3L10.1,196.7
			c0,0,0,0.1,0,0.1c-13.6,34.7,3.5,73.8,38.2,87.4c34.7,13.6,73.8-3.5,87.4-38.2c3.1-7.8,4.6-16.2,4.6-24.6v-73.1h22.9v73.1
			c0,37.3,30.2,67.5,67.5,67.5c37.3,0,67.5-30.2,67.5-67.5C298.1,213,296.5,204.7,293.5,196.8L293.5,196.8z M72.9,277.5
			c-30.9,0-56-25.1-56-56s25.1-56,56-56c30.9,0,56,25.1,56,56v0C128.9,252.4,103.8,277.4,72.9,277.5z M128.9,183.9
			c-12.5-18.7-33.5-29.9-56-29.9l0,0c-14.7,0-28.9,4.8-40.6,13.6L74.6,45.1c2.9-8.7,10-15.4,18.8-18c0.3-0.1,0.7-0.2,1-0.3
			c8.2-2.1,16.9-0.2,23.5,5c6.9,5.3,10.9,13.6,10.9,22.3v27.2h-17c-3.2,0-5.7,2.6-5.7,5.7v20c0,2.2,1.3,4.3,3.3,5.2
			c11.8,5.4,19.4,17.2,19.4,30.2L128.9,183.9L128.9,183.9z M140,136.9c-1.8-14-10.1-26.3-22.4-33.3V92.8h68.3v10.8
			c-12.3,7-20.6,19.3-22.4,33.3L140,136.9z M174.6,142.5c0-13,7.6-24.8,19.4-30.2c2-0.9,3.3-3,3.3-5.2v-20c0-3.2-2.6-5.7-5.7-5.7
			h-17V54.2c0-8.7,4-17,10.9-22.3c6.6-5.2,15.3-7.1,23.5-5c0.3,0.1,0.7,0.2,1,0.3c8.8,2.6,15.9,9.3,18.8,18l10.4,30l22.5,65l0,0
			l9.5,27.5c-29.7-22.4-71.9-16.6-94.4,13.1c-0.8,1-1.5,2.1-2.3,3.2V142.5z M230.6,277.5c-30.9,0-56-25.1-56-56s25.1-56,56-56
			c30.9,0,56,25.1,56,56v0C286.6,252.4,261.6,277.4,230.6,277.5L230.6,277.5z"/>
		<path id="Path_111" d="M230.7,176.8c-24.6,0-44.6,20-44.6,44.6s20,44.6,44.6,44.6s44.6-20,44.6-44.6
			C275.2,196.8,255.3,176.9,230.7,176.8z M198.1,227.5c-3.4-18,8.5-35.3,26.5-38.6c4-0.7,8.1-0.7,12.1,0L198.1,227.5z M230.7,254.6
			L230.7,254.6c-1.9,0-3.7-0.2-5.5-0.5l19-19c2.2-2.3,2.2-5.9-0.1-8.1c-2.2-2.2-5.8-2.2-8,0l-22.7,22.7c-4.3-2.7-8-6.3-10.8-10.6
			l45.7-45.7c15.5,9.7,20.2,30.2,10.4,45.7C252.7,248.7,242.1,254.6,230.7,254.6L230.7,254.6z"/>
	</g>
</g>
</svg>
